<?xml version="1.0" encoding="UTF-8"?>
<svg xmlns="http://www.w3.org/2000/svg" xmlns:xlink="http://www.w3.org/1999/xlink" width="614pt" height="248pt" viewBox="0 0 614 248" version="1.1">
<g id="surface1">
<path style="fill-rule:nonzero;fill:rgb(100%,75.294495%,79.608154%);fill-opacity:1;stroke-width:0.75;stroke-linecap:round;stroke-linejoin:round;stroke:rgb(0%,0%,0%);stroke-opacity:1;stroke-miterlimit:10;" d="M 290.390625 6.210938 L 311.570312 6.210938 L 311.378906 6.210938 L 312.148438 6.238281 L 312.898438 6.390625 L 313.621094 6.671875 L 314.28125 7.050781 L 314.871094 7.539062 L 315.378906 8.109375 L 315.789062 8.761719 L 316.089844 9.460938 L 316.28125 10.210938 L 316.339844 10.96875 L 316.339844 31.230469 L 316.28125 31.988281 L 316.089844 32.738281 L 315.789062 33.441406 L 315.378906 34.089844 L 314.871094 34.671875 L 314.28125 35.148438 L 313.621094 35.539062 L 312.898438 35.808594 L 312.148438 35.960938 L 311.570312 36 L 290.390625 36 L 290.96875 35.960938 L 290.199219 35.988281 L 289.441406 35.898438 L 288.699219 35.691406 L 288.011719 35.359375 L 287.378906 34.921875 L 286.820312 34.390625 L 286.359375 33.78125 L 286.011719 33.101562 L 285.761719 32.371094 L 285.640625 31.609375 L 285.628906 31.230469 L 285.628906 10.96875 L 285.640625 11.359375 L 285.640625 10.589844 L 285.761719 9.828125 L 286.011719 9.101562 L 286.359375 8.429688 L 286.820312 7.808594 L 287.378906 7.28125 L 288.011719 6.839844 L 288.699219 6.519531 L 289.441406 6.300781 L 290.199219 6.210938 Z M 290.390625 6.210938 " transform="matrix(1,0,0,-1,0,248)"/>
</g>
</svg>
