<?xml version="1.0" encoding="UTF-8"?>
<svg xmlns="http://www.w3.org/2000/svg" xmlns:xlink="http://www.w3.org/1999/xlink" width="614pt" height="248pt" viewBox="0 0 614 248" version="1.1">
<g id="surface1">
<path style="fill-rule:nonzero;fill:rgb(100%,75.294495%,79.608154%);fill-opacity:1;stroke-width:0.75;stroke-linecap:round;stroke-linejoin:round;stroke:rgb(0%,0%,0%);stroke-opacity:1;stroke-miterlimit:10;" d="M 189.039062 6.210938 L 210.21875 6.210938 L 210.03125 6.210938 L 210.800781 6.238281 L 211.550781 6.390625 L 212.261719 6.671875 L 212.929688 7.050781 L 213.519531 7.539062 L 214.03125 8.109375 L 214.441406 8.761719 L 214.738281 9.460938 L 214.929688 10.210938 L 214.988281 10.96875 L 214.988281 31.230469 L 214.929688 31.988281 L 214.738281 32.738281 L 214.441406 33.441406 L 214.03125 34.089844 L 213.519531 34.671875 L 212.929688 35.148438 L 212.261719 35.539062 L 211.550781 35.808594 L 210.800781 35.960938 L 210.21875 36 L 189.039062 36 L 189.621094 35.960938 L 188.851562 35.988281 L 188.089844 35.898438 L 187.351562 35.691406 L 186.660156 35.359375 L 186.03125 34.921875 L 185.46875 34.390625 L 185.011719 33.78125 L 184.660156 33.101562 L 184.410156 32.371094 L 184.289062 31.609375 L 184.28125 31.230469 L 184.28125 10.96875 L 184.289062 11.359375 L 184.289062 10.589844 L 184.410156 9.828125 L 184.660156 9.101562 L 185.011719 8.429688 L 185.46875 7.808594 L 186.03125 7.28125 L 186.660156 6.839844 L 187.351562 6.519531 L 188.089844 6.300781 L 188.851562 6.210938 Z M 189.039062 6.210938 " transform="matrix(1,0,0,-1,0,248)"/>
</g>
</svg>
