<?xml version="1.0" encoding="UTF-8"?>
<svg xmlns="http://www.w3.org/2000/svg" xmlns:xlink="http://www.w3.org/1999/xlink" width="614pt" height="248pt" viewBox="0 0 614 248" version="1.1">
<g id="surface1">
<path style="fill-rule:nonzero;fill:rgb(100%,75.294495%,79.608154%);fill-opacity:1;stroke-width:0.75;stroke-linecap:round;stroke-linejoin:round;stroke:rgb(0%,0%,0%);stroke-opacity:1;stroke-miterlimit:10;" d="M 121.46875 6.210938 L 142.648438 6.210938 L 142.460938 6.210938 L 143.230469 6.238281 L 143.980469 6.390625 L 144.699219 6.671875 L 145.359375 7.050781 L 145.960938 7.539062 L 146.460938 8.109375 L 146.871094 8.761719 L 147.171875 9.460938 L 147.359375 10.210938 L 147.421875 10.96875 L 147.421875 31.230469 L 147.359375 31.988281 L 147.171875 32.738281 L 146.871094 33.441406 L 146.460938 34.089844 L 145.960938 34.671875 L 145.359375 35.148438 L 144.699219 35.539062 L 143.980469 35.808594 L 143.230469 35.960938 L 142.648438 36 L 121.46875 36 L 122.050781 35.960938 L 121.28125 35.988281 L 120.519531 35.898438 L 119.78125 35.691406 L 119.089844 35.359375 L 118.460938 34.921875 L 117.910156 34.390625 L 117.449219 33.78125 L 117.089844 33.101562 L 116.851562 32.371094 L 116.71875 31.609375 L 116.710938 31.230469 L 116.710938 10.96875 L 116.71875 11.359375 L 116.71875 10.589844 L 116.851562 9.828125 L 117.089844 9.101562 L 117.449219 8.429688 L 117.910156 7.808594 L 118.460938 7.28125 L 119.089844 6.839844 L 119.78125 6.519531 L 120.519531 6.300781 L 121.28125 6.210938 Z M 121.46875 6.210938 " transform="matrix(1,0,0,-1,0,248)"/>
</g>
</svg>
