<?xml version="1.0" encoding="UTF-8"?>
<svg xmlns="http://www.w3.org/2000/svg" xmlns:xlink="http://www.w3.org/1999/xlink" width="614pt" height="248pt" viewBox="0 0 614 248" version="1.1">
<g id="surface1">
<path style="fill-rule:nonzero;fill:rgb(100%,75.294495%,79.608154%);fill-opacity:1;stroke-width:0.75;stroke-linecap:round;stroke-linejoin:round;stroke:rgb(0%,0%,0%);stroke-opacity:1;stroke-miterlimit:10;" d="M 321.109375 6.210938 L 342.28125 6.210938 L 342.089844 6.210938 L 342.859375 6.238281 L 343.609375 6.390625 L 344.328125 6.671875 L 344.988281 7.050781 L 345.589844 7.539062 L 346.101562 8.109375 L 346.511719 8.761719 L 346.808594 9.460938 L 346.988281 10.210938 L 347.050781 10.96875 L 347.050781 31.230469 L 346.988281 31.988281 L 346.808594 32.738281 L 346.511719 33.441406 L 346.101562 34.089844 L 345.589844 34.671875 L 344.988281 35.148438 L 344.328125 35.539062 L 343.609375 35.808594 L 342.859375 35.960938 L 342.28125 36 L 321.109375 36 L 321.679688 35.960938 L 320.910156 35.988281 L 320.148438 35.898438 L 319.410156 35.691406 L 318.71875 35.359375 L 318.089844 34.921875 L 317.539062 34.390625 L 317.078125 33.78125 L 316.71875 33.101562 L 316.480469 32.371094 L 316.351562 31.609375 L 316.339844 31.230469 L 316.339844 10.96875 L 316.351562 11.359375 L 316.351562 10.589844 L 316.480469 9.828125 L 316.71875 9.101562 L 317.078125 8.429688 L 317.539062 7.808594 L 318.089844 7.28125 L 318.71875 6.839844 L 319.410156 6.519531 L 320.148438 6.300781 L 320.910156 6.210938 Z M 321.109375 6.210938 " transform="matrix(1,0,0,-1,0,248)"/>
</g>
</svg>
