<?xml version="1.0" encoding="UTF-8"?>
<svg xmlns="http://www.w3.org/2000/svg" xmlns:xlink="http://www.w3.org/1999/xlink" width="614pt" height="248pt" viewBox="0 0 614 248" version="1.1">
<g id="surface1">
<path style="fill-rule:nonzero;fill:rgb(100%,75.294495%,79.608154%);fill-opacity:1;stroke-width:0.75;stroke-linecap:round;stroke-linejoin:round;stroke:rgb(0%,0%,0%);stroke-opacity:1;stroke-miterlimit:10;" d="M 388.671875 6.210938 L 409.851562 6.210938 L 409.660156 6.210938 L 410.429688 6.238281 L 411.179688 6.390625 L 411.898438 6.671875 L 412.558594 7.050781 L 413.148438 7.539062 L 413.660156 8.109375 L 414.070312 8.761719 L 414.371094 9.460938 L 414.558594 10.210938 L 414.621094 10.96875 L 414.621094 31.230469 L 414.558594 31.988281 L 414.371094 32.738281 L 414.070312 33.441406 L 413.660156 34.089844 L 413.148438 34.671875 L 412.558594 35.148438 L 411.898438 35.539062 L 411.179688 35.808594 L 410.429688 35.960938 L 409.851562 36 L 388.671875 36 L 389.25 35.960938 L 388.480469 35.988281 L 387.71875 35.898438 L 386.980469 35.691406 L 386.289062 35.359375 L 385.660156 34.921875 L 385.101562 34.390625 L 384.640625 33.78125 L 384.289062 33.101562 L 384.039062 32.371094 L 383.921875 31.609375 L 383.910156 31.230469 L 383.910156 10.96875 L 383.921875 11.359375 L 383.921875 10.589844 L 384.039062 9.828125 L 384.289062 9.101562 L 384.640625 8.429688 L 385.101562 7.808594 L 385.660156 7.28125 L 386.289062 6.839844 L 386.980469 6.519531 L 387.71875 6.300781 L 388.480469 6.210938 Z M 388.671875 6.210938 " transform="matrix(1,0,0,-1,0,248)"/>
</g>
</svg>
