<?xml version="1.0" encoding="UTF-8"?>
<svg xmlns="http://www.w3.org/2000/svg" xmlns:xlink="http://www.w3.org/1999/xlink" width="614pt" height="248pt" viewBox="0 0 614 248" version="1.1">
<g id="surface1">
<path style="fill-rule:nonzero;fill:rgb(100%,75.294495%,79.608154%);fill-opacity:1;stroke-width:0.75;stroke-linecap:round;stroke-linejoin:round;stroke:rgb(0%,0%,0%);stroke-opacity:1;stroke-miterlimit:10;" d="M 256.609375 6.210938 L 277.789062 6.210938 L 277.601562 6.210938 L 278.359375 6.238281 L 279.109375 6.390625 L 279.828125 6.671875 L 280.5 7.050781 L 281.089844 7.539062 L 281.601562 8.109375 L 282.011719 8.761719 L 282.308594 9.460938 L 282.488281 10.210938 L 282.558594 10.96875 L 282.558594 31.230469 L 282.488281 31.988281 L 282.308594 32.738281 L 282.011719 33.441406 L 281.601562 34.089844 L 281.089844 34.671875 L 280.5 35.148438 L 279.828125 35.539062 L 279.109375 35.808594 L 278.359375 35.960938 L 277.789062 36 L 256.609375 36 L 257.179688 35.960938 L 256.421875 35.988281 L 255.660156 35.898438 L 254.921875 35.691406 L 254.230469 35.359375 L 253.589844 34.921875 L 253.039062 34.390625 L 252.578125 33.78125 L 252.21875 33.101562 L 251.980469 32.371094 L 251.859375 31.609375 L 251.839844 31.230469 L 251.839844 10.96875 L 251.859375 11.359375 L 251.859375 10.589844 L 251.980469 9.828125 L 252.21875 9.101562 L 252.578125 8.429688 L 253.039062 7.808594 L 253.589844 7.28125 L 254.230469 6.839844 L 254.921875 6.519531 L 255.660156 6.300781 L 256.421875 6.210938 Z M 256.609375 6.210938 " transform="matrix(1,0,0,-1,0,248)"/>
</g>
</svg>
