<?xml version="1.0" encoding="UTF-8"?>
<svg xmlns="http://www.w3.org/2000/svg" xmlns:xlink="http://www.w3.org/1999/xlink" width="614pt" height="248pt" viewBox="0 0 614 248" version="1.1">
<g id="surface1">
<path style="fill-rule:nonzero;fill:rgb(100%,75.294495%,79.608154%);fill-opacity:1;stroke-width:0.75;stroke-linecap:round;stroke-linejoin:round;stroke:rgb(0%,0%,0%);stroke-opacity:1;stroke-miterlimit:10;" d="M 222.828125 6.210938 L 244 6.210938 L 243.808594 6.210938 L 244.578125 6.238281 L 245.328125 6.390625 L 246.050781 6.671875 L 246.710938 7.050781 L 247.308594 7.539062 L 247.820312 8.109375 L 248.230469 8.761719 L 248.53125 9.460938 L 248.710938 10.210938 L 248.769531 10.96875 L 248.769531 31.230469 L 248.710938 31.988281 L 248.53125 32.738281 L 248.230469 33.441406 L 247.820312 34.089844 L 247.308594 34.671875 L 246.710938 35.148438 L 246.050781 35.539062 L 245.328125 35.808594 L 244.578125 35.960938 L 244 36 L 222.828125 36 L 223.398438 35.960938 L 222.628906 35.988281 L 221.871094 35.898438 L 221.128906 35.691406 L 220.441406 35.359375 L 219.808594 34.921875 L 219.261719 34.390625 L 218.800781 33.78125 L 218.441406 33.101562 L 218.199219 32.371094 L 218.070312 31.609375 L 218.058594 31.230469 L 218.058594 10.96875 L 218.070312 11.359375 L 218.070312 10.589844 L 218.199219 9.828125 L 218.441406 9.101562 L 218.800781 8.429688 L 219.261719 7.808594 L 219.808594 7.28125 L 220.441406 6.839844 L 221.128906 6.519531 L 221.871094 6.300781 L 222.628906 6.210938 Z M 222.828125 6.210938 " transform="matrix(1,0,0,-1,0,248)"/>
</g>
</svg>
