<?xml version="1.0" encoding="UTF-8"?>
<svg xmlns="http://www.w3.org/2000/svg" xmlns:xlink="http://www.w3.org/1999/xlink" width="614pt" height="248pt" viewBox="0 0 614 248" version="1.1">
<g id="surface1">
<path style="fill-rule:nonzero;fill:rgb(100%,75.294495%,79.608154%);fill-opacity:1;stroke-width:0.75;stroke-linecap:round;stroke-linejoin:round;stroke:rgb(0%,0%,0%);stroke-opacity:1;stroke-miterlimit:10;" d="M 87.691406 6.210938 L 108.871094 6.210938 L 108.679688 6.210938 L 109.441406 6.238281 L 110.199219 6.390625 L 110.910156 6.671875 L 111.578125 7.050781 L 112.171875 7.539062 L 112.679688 8.109375 L 113.089844 8.761719 L 113.390625 9.460938 L 113.570312 10.210938 L 113.640625 10.96875 L 113.640625 31.230469 L 113.570312 31.988281 L 113.390625 32.738281 L 113.089844 33.441406 L 112.679688 34.089844 L 112.171875 34.671875 L 111.578125 35.148438 L 110.910156 35.539062 L 110.199219 35.808594 L 109.441406 35.960938 L 108.871094 36 L 87.691406 36 L 88.261719 35.960938 L 87.5 35.988281 L 86.738281 35.898438 L 86 35.691406 L 85.308594 35.359375 L 84.679688 34.921875 L 84.121094 34.390625 L 83.660156 33.78125 L 83.308594 33.101562 L 83.058594 32.371094 L 82.941406 31.609375 L 82.921875 31.230469 L 82.921875 10.96875 L 82.941406 11.359375 L 82.941406 10.589844 L 83.058594 9.828125 L 83.308594 9.101562 L 83.660156 8.429688 L 84.121094 7.808594 L 84.679688 7.28125 L 85.308594 6.839844 L 86 6.519531 L 86.738281 6.300781 L 87.5 6.210938 Z M 87.691406 6.210938 " transform="matrix(1,0,0,-1,0,248)"/>
</g>
</svg>
