<?xml version="1.0" encoding="UTF-8"?>
<svg xmlns="http://www.w3.org/2000/svg" xmlns:xlink="http://www.w3.org/1999/xlink" width="614pt" height="248pt" viewBox="0 0 614 248" version="1.1">
<g id="surface1">
<path style="fill-rule:nonzero;fill:rgb(100%,75.294495%,79.608154%);fill-opacity:1;stroke-width:0.75;stroke-linecap:round;stroke-linejoin:round;stroke:rgb(0%,0%,0%);stroke-opacity:1;stroke-miterlimit:10;" d="M 354.890625 6.210938 L 376.070312 6.210938 L 375.878906 6.210938 L 376.640625 6.238281 L 377.390625 6.390625 L 378.109375 6.671875 L 378.78125 7.050781 L 379.371094 7.539062 L 379.878906 8.109375 L 380.289062 8.761719 L 380.589844 9.460938 L 380.769531 10.210938 L 380.828125 10.96875 L 380.828125 31.230469 L 380.769531 31.988281 L 380.589844 32.738281 L 380.289062 33.441406 L 379.878906 34.089844 L 379.371094 34.671875 L 378.78125 35.148438 L 378.109375 35.539062 L 377.390625 35.808594 L 376.640625 35.960938 L 376.070312 36 L 354.890625 36 L 355.460938 35.960938 L 354.699219 35.988281 L 353.941406 35.898438 L 353.199219 35.691406 L 352.511719 35.359375 L 351.871094 34.921875 L 351.320312 34.390625 L 350.859375 33.78125 L 350.5 33.101562 L 350.261719 32.371094 L 350.140625 31.609375 L 350.121094 31.230469 L 350.121094 10.96875 L 350.140625 11.359375 L 350.140625 10.589844 L 350.261719 9.828125 L 350.5 9.101562 L 350.859375 8.429688 L 351.320312 7.808594 L 351.871094 7.28125 L 352.511719 6.839844 L 353.199219 6.519531 L 353.941406 6.300781 L 354.699219 6.210938 Z M 354.890625 6.210938 " transform="matrix(1,0,0,-1,0,248)"/>
</g>
</svg>
