<?xml version="1.0" encoding="UTF-8"?>
<svg xmlns="http://www.w3.org/2000/svg" xmlns:xlink="http://www.w3.org/1999/xlink" width="614pt" height="248pt" viewBox="0 0 614 248" version="1.1">
<g id="surface1">
<path style="fill-rule:nonzero;fill:rgb(100%,75.294495%,79.608154%);fill-opacity:1;stroke-width:0.75;stroke-linecap:round;stroke-linejoin:round;stroke:rgb(0%,0%,0%);stroke-opacity:1;stroke-miterlimit:10;" d="M 523.808594 6.210938 L 544.988281 6.210938 L 544.800781 6.210938 L 545.558594 6.238281 L 546.308594 6.390625 L 547.03125 6.671875 L 547.691406 7.050781 L 548.289062 7.539062 L 548.800781 8.109375 L 549.210938 8.761719 L 549.511719 9.460938 L 549.691406 10.210938 L 549.75 10.96875 L 549.75 31.230469 L 549.691406 31.988281 L 549.511719 32.738281 L 549.210938 33.441406 L 548.800781 34.089844 L 548.289062 34.671875 L 547.691406 35.148438 L 547.03125 35.539062 L 546.308594 35.808594 L 545.558594 35.960938 L 544.988281 36 L 523.808594 36 L 524.378906 35.960938 L 523.621094 35.988281 L 522.851562 35.898438 L 522.121094 35.691406 L 521.421875 35.359375 L 520.789062 34.921875 L 520.238281 34.390625 L 519.78125 33.78125 L 519.421875 33.101562 L 519.179688 32.371094 L 519.058594 31.609375 L 519.039062 31.230469 L 519.039062 10.96875 L 519.058594 11.359375 L 519.058594 10.589844 L 519.179688 9.828125 L 519.421875 9.101562 L 519.78125 8.429688 L 520.238281 7.808594 L 520.789062 7.28125 L 521.421875 6.839844 L 522.121094 6.519531 L 522.851562 6.300781 L 523.621094 6.210938 Z M 523.808594 6.210938 " transform="matrix(1,0,0,-1,0,248)"/>
</g>
</svg>
