<?xml version="1.0" encoding="UTF-8"?>
<svg xmlns="http://www.w3.org/2000/svg" xmlns:xlink="http://www.w3.org/1999/xlink" width="614pt" height="248pt" viewBox="0 0 614 248" version="1.1">
<g id="surface1">
<path style="fill-rule:nonzero;fill:rgb(100%,75.294495%,79.608154%);fill-opacity:1;stroke-width:0.75;stroke-linecap:round;stroke-linejoin:round;stroke:rgb(0%,0%,0%);stroke-opacity:1;stroke-miterlimit:10;" d="M 557.589844 6.210938 L 578.769531 6.210938 L 578.578125 6.210938 L 579.351562 6.238281 L 580.101562 6.390625 L 580.808594 6.671875 L 581.480469 7.050781 L 582.070312 7.539062 L 582.578125 8.109375 L 582.988281 8.761719 L 583.289062 9.460938 L 583.480469 10.210938 L 583.539062 10.96875 L 583.539062 31.230469 L 583.480469 31.988281 L 583.289062 32.738281 L 582.988281 33.441406 L 582.578125 34.089844 L 582.070312 34.671875 L 581.480469 35.148438 L 580.808594 35.539062 L 580.101562 35.808594 L 579.351562 35.960938 L 578.769531 36 L 557.589844 36 L 558.171875 35.960938 L 557.398438 35.988281 L 556.640625 35.898438 L 555.898438 35.691406 L 555.210938 35.359375 L 554.578125 34.921875 L 554.019531 34.390625 L 553.558594 33.78125 L 553.210938 33.101562 L 552.960938 32.371094 L 552.839844 31.609375 L 552.820312 31.230469 L 552.820312 10.96875 L 552.839844 11.359375 L 552.839844 10.589844 L 552.960938 9.828125 L 553.210938 9.101562 L 553.558594 8.429688 L 554.019531 7.808594 L 554.578125 7.28125 L 555.210938 6.839844 L 555.898438 6.519531 L 556.640625 6.300781 L 557.398438 6.210938 Z M 557.589844 6.210938 " transform="matrix(1,0,0,-1,0,248)"/>
</g>
</svg>
