<?xml version="1.0" encoding="UTF-8"?>
<svg xmlns="http://www.w3.org/2000/svg" xmlns:xlink="http://www.w3.org/1999/xlink" width="614pt" height="248pt" viewBox="0 0 614 248" version="1.1">
<g id="surface1">
<path style="fill-rule:nonzero;fill:rgb(100%,75.294495%,79.608154%);fill-opacity:1;stroke-width:0.75;stroke-linecap:round;stroke-linejoin:round;stroke:rgb(0%,0%,0%);stroke-opacity:1;stroke-miterlimit:10;" d="M 155.261719 6.210938 L 176.441406 6.210938 L 176.25 6.210938 L 177.011719 6.238281 L 177.761719 6.390625 L 178.480469 6.671875 L 179.140625 7.050781 L 179.738281 7.539062 L 180.25 8.109375 L 180.660156 8.761719 L 180.960938 9.460938 L 181.140625 10.210938 L 181.199219 10.96875 L 181.199219 31.230469 L 181.140625 31.988281 L 180.960938 32.738281 L 180.660156 33.441406 L 180.25 34.089844 L 179.738281 34.671875 L 179.140625 35.148438 L 178.480469 35.539062 L 177.761719 35.808594 L 177.011719 35.960938 L 176.441406 36 L 155.261719 36 L 155.828125 35.960938 L 155.070312 35.988281 L 154.300781 35.898438 L 153.570312 35.691406 L 152.871094 35.359375 L 152.238281 34.921875 L 151.691406 34.390625 L 151.230469 33.78125 L 150.871094 33.101562 L 150.628906 32.371094 L 150.511719 31.609375 L 150.488281 31.230469 L 150.488281 10.96875 L 150.511719 11.359375 L 150.511719 10.589844 L 150.628906 9.828125 L 150.871094 9.101562 L 151.230469 8.429688 L 151.691406 7.808594 L 152.238281 7.28125 L 152.871094 6.839844 L 153.570312 6.519531 L 154.300781 6.300781 L 155.070312 6.210938 Z M 155.261719 6.210938 " transform="matrix(1,0,0,-1,0,248)"/>
</g>
</svg>
