<?xml version="1.0" encoding="UTF-8"?>
<svg xmlns="http://www.w3.org/2000/svg" xmlns:xlink="http://www.w3.org/1999/xlink" width="614pt" height="248pt" viewBox="0 0 614 248" version="1.1">
<g id="surface1">
<path style="fill-rule:nonzero;fill:rgb(100%,75.294495%,79.608154%);fill-opacity:1;stroke-width:0.75;stroke-linecap:round;stroke-linejoin:round;stroke:rgb(0%,0%,0%);stroke-opacity:1;stroke-miterlimit:10;" d="M 422.460938 6.210938 L 443.640625 6.210938 L 443.441406 6.210938 L 444.210938 6.238281 L 444.960938 6.390625 L 445.679688 6.671875 L 446.339844 7.050781 L 446.941406 7.539062 L 447.449219 8.109375 L 447.859375 8.761719 L 448.160156 9.460938 L 448.339844 10.210938 L 448.398438 10.96875 L 448.398438 31.230469 L 448.339844 31.988281 L 448.160156 32.738281 L 447.859375 33.441406 L 447.449219 34.089844 L 446.941406 34.671875 L 446.339844 35.148438 L 445.679688 35.539062 L 444.960938 35.808594 L 444.210938 35.960938 L 443.640625 36 L 422.460938 36 L 423.03125 35.960938 L 422.261719 35.988281 L 421.5 35.898438 L 420.769531 35.691406 L 420.070312 35.359375 L 419.441406 34.921875 L 418.890625 34.390625 L 418.429688 33.78125 L 418.070312 33.101562 L 417.828125 32.371094 L 417.710938 31.609375 L 417.691406 31.230469 L 417.691406 10.96875 L 417.710938 11.359375 L 417.710938 10.589844 L 417.828125 9.828125 L 418.070312 9.101562 L 418.429688 8.429688 L 418.890625 7.808594 L 419.441406 7.28125 L 420.070312 6.839844 L 420.769531 6.519531 L 421.5 6.300781 L 422.261719 6.210938 Z M 422.460938 6.210938 " transform="matrix(1,0,0,-1,0,248)"/>
</g>
</svg>
