<?xml version="1.0" encoding="UTF-8"?>
<svg xmlns="http://www.w3.org/2000/svg" xmlns:xlink="http://www.w3.org/1999/xlink" width="614pt" height="248pt" viewBox="0 0 614 248" version="1.1">
<g id="surface1">
<path style="fill-rule:nonzero;fill:rgb(100%,75.294495%,79.608154%);fill-opacity:1;stroke-width:0.75;stroke-linecap:round;stroke-linejoin:round;stroke:rgb(0%,0%,0%);stroke-opacity:1;stroke-miterlimit:10;" d="M 456.238281 6.210938 L 477.421875 6.210938 L 477.230469 6.210938 L 477.988281 6.238281 L 478.75 6.390625 L 479.460938 6.671875 L 480.128906 7.050781 L 480.71875 7.539062 L 481.230469 8.109375 L 481.640625 8.761719 L 481.941406 9.460938 L 482.121094 10.210938 L 482.191406 10.96875 L 482.191406 31.230469 L 482.121094 31.988281 L 481.941406 32.738281 L 481.640625 33.441406 L 481.230469 34.089844 L 480.71875 34.671875 L 480.128906 35.148438 L 479.460938 35.539062 L 478.75 35.808594 L 477.988281 35.960938 L 477.421875 36 L 456.238281 36 L 456.808594 35.960938 L 456.050781 35.988281 L 455.289062 35.898438 L 454.550781 35.691406 L 453.859375 35.359375 L 453.230469 34.921875 L 452.671875 34.390625 L 452.210938 33.78125 L 451.859375 33.101562 L 451.609375 32.371094 L 451.488281 31.609375 L 451.46875 31.230469 L 451.46875 10.96875 L 451.488281 11.359375 L 451.488281 10.589844 L 451.609375 9.828125 L 451.859375 9.101562 L 452.210938 8.429688 L 452.671875 7.808594 L 453.230469 7.28125 L 453.859375 6.839844 L 454.550781 6.519531 L 455.289062 6.300781 L 456.050781 6.210938 Z M 456.238281 6.210938 " transform="matrix(1,0,0,-1,0,248)"/>
</g>
</svg>
