<?xml version="1.0" encoding="UTF-8"?>
<svg xmlns="http://www.w3.org/2000/svg" xmlns:xlink="http://www.w3.org/1999/xlink" width="614pt" height="248pt" viewBox="0 0 614 248" version="1.1">
<g id="surface1">
<path style="fill-rule:nonzero;fill:rgb(100%,75.294495%,79.608154%);fill-opacity:1;stroke-width:0.75;stroke-linecap:round;stroke-linejoin:round;stroke:rgb(0%,0%,0%);stroke-opacity:1;stroke-miterlimit:10;" d="M 490.019531 6.210938 L 511.199219 6.210938 L 511.011719 6.210938 L 511.78125 6.238281 L 512.53125 6.390625 L 513.25 6.671875 L 513.910156 7.050781 L 514.511719 7.539062 L 515.011719 8.109375 L 515.421875 8.761719 L 515.71875 9.460938 L 515.910156 10.210938 L 515.96875 10.96875 L 515.96875 31.230469 L 515.910156 31.988281 L 515.71875 32.738281 L 515.421875 33.441406 L 515.011719 34.089844 L 514.511719 34.671875 L 513.910156 35.148438 L 513.25 35.539062 L 512.53125 35.808594 L 511.78125 35.960938 L 511.199219 36 L 490.019531 36 L 490.601562 35.960938 L 489.828125 35.988281 L 489.070312 35.898438 L 488.328125 35.691406 L 487.640625 35.359375 L 487.011719 34.921875 L 486.460938 34.390625 L 486 33.78125 L 485.640625 33.101562 L 485.398438 32.371094 L 485.269531 31.609375 L 485.261719 31.230469 L 485.261719 10.96875 L 485.269531 11.359375 L 485.269531 10.589844 L 485.398438 9.828125 L 485.640625 9.101562 L 486 8.429688 L 486.460938 7.808594 L 487.011719 7.28125 L 487.640625 6.839844 L 488.328125 6.519531 L 489.070312 6.300781 L 489.828125 6.210938 Z M 490.019531 6.210938 " transform="matrix(1,0,0,-1,0,248)"/>
</g>
</svg>
