<?xml version="1.0" encoding="utf-8"?>
<svg width="614pt" height="248pt" viewBox="0 0 614 248" xmlns="http://www.w3.org/2000/svg" xmlns:bx="https://boxy-svg.com">
  <g id="surface1" transform="matrix(0.871506, 0, 0, 0.871506, 18.834986, 5.624009)">
    <path style="fill-rule:nonzero;fill:rgb(100%,75.294495%,79.608154%);fill-opacity:1;stroke-width:0.75;stroke-linecap:round;stroke-linejoin:round;stroke:rgb(0%,0%,0%);stroke-opacity:1;stroke-miterlimit:10;" d="M 557.59 241.789 L 578.77 241.789 L 578.578 241.789 L 579.352 241.762 L 580.102 241.609 L 580.809 241.328 L 581.48 240.949 L 582.07 240.461 L 582.578 239.891 L 582.988 239.238 L 583.289 238.539 L 583.48 237.789 L 583.539 237.031 L 583.539 216.77 L 583.48 216.012 L 583.289 215.262 L 582.988 214.559 L 582.578 213.91 L 582.07 213.328 L 581.48 212.852 L 580.809 212.461 L 580.102 212.191 L 579.352 212.039 L 578.77 212 L 557.59 212 L 558.172 212.039 L 557.398 212.012 L 556.641 212.102 L 555.898 212.309 L 555.211 212.641 L 554.578 213.078 L 554.02 213.609 L 553.559 214.219 L 553.211 214.898 L 552.961 215.629 L 552.84 216.391 L 552.82 216.77 L 552.82 237.031 L 552.84 236.641 L 552.84 237.41 L 552.961 238.172 L 553.211 238.898 L 553.559 239.57 L 554.02 240.191 L 554.578 240.719 L 555.211 241.16 L 555.898 241.48 L 556.641 241.699 L 557.398 241.789 Z M 557.59 241.789" bx:origin="0.5 0.5"/>
  </g>
</svg>